<?xml version="1.0" encoding="iso-8859-1"?>
<!-- Generator: Adobe Illustrator 17.1.0, SVG Export Plug-In . SVG Version: 6.00 Build 0)  -->
<!DOCTYPE svg PUBLIC "-//W3C//DTD SVG 1.1//EN" "http://www.w3.org/Graphics/SVG/1.1/DTD/svg11.dtd">
<svg version="1.1" id="Capa_1" xmlns="http://www.w3.org/2000/svg" xmlns:xlink="http://www.w3.org/1999/xlink" x="0px" y="0px"
	 viewBox="0 0 223.415 223.415" style="enable-background:new 0 0 223.415 223.415;" xml:space="preserve">
<path d="M130.272,223.415c-0.251,0-0.507-0.048-0.753-0.148c-0.965-0.393-1.467-1.461-1.153-2.455
	c0.075-0.236,7.473-23.7,9.604-35.006c2.278-12.084,3.991-24.183,1.867-49.953l-2.179-26.428c-0.029-0.357,0.038-0.715,0.193-1.037
	c0.08-0.178,0.835-1.985-0.613-3.545c-0.822-0.885-1.782-2.082-2.798-3.349c-2.07-2.581-4.647-5.792-6.801-7.248
	c-0.971-0.656-1.875-1.268-2.677-1.811c0.164,0.732,0.395,1.444,0.717,2.029c1.316,2.385,2.887,3.823,2.903,3.837
	c0.436,0.396,0.681,0.968,0.66,1.556c-0.02,0.564-0.522,13.939-3.971,25.146c-3.389,11.014-8.42,24.42-8.47,24.554
	c-0.313,0.832-1.141,1.358-2.022,1.291c-0.886-0.066-1.622-0.71-1.806-1.579l-0.266-1.253l-0.797,0.081
	c-0.134,0.014-0.269,0.014-0.404,0l-0.796-0.081l-0.266,1.253c-0.185,0.869-0.92,1.513-1.806,1.579
	c-0.892,0.068-1.709-0.459-2.022-1.291c-0.05-0.134-5.081-13.541-8.47-24.554c-3.448-11.207-3.951-24.583-3.971-25.146
	c-0.021-0.593,0.223-1.165,0.665-1.56c0.011-0.01,1.582-1.449,2.898-3.833c0.322-0.584,0.553-1.296,0.717-2.029
	c-0.802,0.542-1.707,1.155-2.677,1.811c-2.154,1.456-4.731,4.667-6.801,7.248c-1.017,1.267-1.977,2.464-2.799,3.349
	c-1.448,1.56-0.693,3.367-0.602,3.568c0.14,0.31,0.21,0.675,0.183,1.014l-2.179,26.428c-2.125,25.77-0.412,37.869,1.867,49.953
	c2.131,11.306,9.529,34.77,9.604,35.006c0.314,0.994-0.188,2.062-1.153,2.455c-0.964,0.392-2.07-0.021-2.54-0.952
	c-0.445-0.882-10.938-21.764-14.456-35.647c-3.791-14.958-5.095-25.151-5.366-41.948c-0.283-17.541,2.728-45.343,2.758-45.622
	c0.111-1.014,0.968-1.783,1.988-1.783c0.08-0.002,2.503-0.082,5.166-2.287c1.754-1.454,5.493-4.752,8.576-7.492
	c-3.91,0.604-7.789,1.404-9.091,2.208c-1.747,1.079-7.167,6.591-11.522,11.021c-3.068,3.12-5.965,6.067-7.622,7.53
	c-1.993,1.761-7.118,5.581-12.075,9.276c-4.744,3.536-10.648,7.937-11.409,8.806c-0.132,0.155-0.155,0.236-0.155,0.236l0,0
	c0.024,0,0.173,0.154,0.174,0.155c0.692,0.494,0.995,1.373,0.757,2.188c-0.011,0.038-1.119,3.863-2.125,9.903
	c-0.917,5.502-1.715,11.732-0.554,21.991c1.103,9.737,11.374,42.68,11.478,43.012c0.318,1.018-0.219,2.106-1.22,2.474
	c-1,0.368-2.114-0.115-2.531-1.096c-0.062-0.146-6.194-14.595-8.172-18.738c-2.134-4.468-10.915-29.935-11.309-41.97
	c-0.378-11.549,1.127-27.921,1.192-28.613c0.07-0.76,0.567-1.413,1.28-1.684c0.714-0.271,1.519-0.114,2.076,0.407
	c1.004,0.932,2.422,1.847,2.916,1.88c0.191,0.011,0.354,0.019,0.5,0.019c0.367,0,0.405,0,1.878-0.729
	c0.413-0.205,0.909-0.45,1.521-0.744c3.766-1.811,8.944-5.368,16.296-11.195c8.271-6.556,22.248-22.99,22.388-23.155
	c0.359-0.423,0.878-0.678,1.433-0.704c0.005,0,4.092-0.189,8.179-0.44c1.86-0.115,4.607-0.596,6.975-1.068
	c-2.021-1.192-4.25-2.382-5.719-2.82c-0.667-0.199-1.503-0.299-2.486-0.299c-3.083,0-7.661,0.976-14.409,3.072
	c-8.167,2.537-20.382,7.384-20.504,7.432c-0.653,0.26-1.395,0.158-1.953-0.27l-10.988-8.398c-0.52-0.397-0.813-1.023-0.784-1.676
	c0.026-0.598,0.706-14.858,6.265-34.188c5.557-19.323,16.861-39.626,16.975-39.83c0.511-0.913,1.64-1.277,2.587-0.837
	c0.949,0.44,1.398,1.537,1.031,2.516c0,0-1.705,4.545-3.282,8.775c-1.813,4.855-9.607,29.035-10.556,38.526
	c-0.929,9.293-0.532,20.62,0.077,23.664c1.9-0.092,6.048-1.207,11.695-2.724c1.557-0.418,3.241-0.871,5.051-1.349
	c11.233-2.966,21.268-5.68,21.27-5.681c0.617-0.168,1.28-0.027,1.779,0.375c0.001,0.001,2.358,1.906,5.044,4.061l-2.219-3.798
	c-1.612-0.744-6.416-2.912-10.107-4.06c-2.915-0.906-5.387-1.028-7.42-1.028c-0.609,0-1.195,0.012-1.759,0.023
	c-0.55,0.011-1.081,0.021-1.594,0.021c-1.407,0-1.758,1.522-1.772,1.587c-0.141,0.64-0.585,1.169-1.19,1.419
	c-0.606,0.25-1.295,0.188-1.845-0.167l-8.336-5.368c-0.4-0.258-0.695-0.649-0.833-1.105c-0.136-0.453-3.274-11.289,2.48-28.553
	C63.468,10.749,72.42,1.04,72.798,0.635c0.677-0.725,1.784-0.844,2.599-0.28c0.816,0.564,1.095,1.641,0.656,2.53
	c0,0-4.923,9.974-7.701,15.654c-2.618,5.356-3.274,11.88-3.523,21.34c-0.159,6.022,0.832,8.949,1.389,10.104
	c1.854,0.066,5.917,0.277,11.073,0.934c7.195,0.916,18.377,6.396,18.85,6.629c0.564,0.278,0.964,0.805,1.081,1.422l0,0
	c0,0,0.465,2.063,2.895,5.541c0.323,0.462,0.619,0.873,0.889,1.235c0.127-0.361,0.275-0.685,0.449-0.946
	c0.298-0.446,1.086-1.627,6.684-2.806c0.95-0.201,1.908,0.312,2.269,1.214c0.361,0.902,0.021,1.934-0.806,2.444
	c-0.007,0.004-1.111,0.71-1.951,1.852c0.354-0.085,0.731-0.077,1.09,0.043c0.403,0.134,1.248,0.551,2.382,1.836
	c-0.005,0.044-0.052,0.057-0.135,0.089c0.417-0.161,0.872-0.177,1.297-0.049c1.143-1.326,1.987-1.743,2.39-1.877
	c0.359-0.12,0.733-0.132,1.084-0.051c-0.839-1.138-1.939-1.841-1.953-1.85c-0.819-0.517-1.154-1.548-0.79-2.445
	c0.364-0.897,1.314-1.41,2.261-1.208c5.598,1.179,6.386,2.36,6.683,2.805c0.174,0.261,0.323,0.585,0.45,0.947
	c0.27-0.363,0.566-0.773,0.889-1.235c2.432-3.482,2.896-5.546,2.9-5.566c0.129-0.597,0.528-1.127,1.076-1.397
	c0.473-0.233,11.654-5.713,18.85-6.629c5.167-0.658,9.235-0.868,11.084-0.934c0.531-1.111,1.537-4.037,1.377-10.103
	c-0.249-9.46-0.905-15.984-3.523-21.34c-2.777-5.681-7.701-15.654-7.701-15.654c-0.439-0.889-0.16-1.966,0.656-2.53
	c0.815-0.565,1.922-0.445,2.599,0.28c0.378,0.405,9.331,10.114,15.024,27.193c5.754,17.264,2.617,28.1,2.48,28.553
	c-0.137,0.456-0.432,0.847-0.832,1.105l-8.336,5.368c-0.551,0.354-1.241,0.417-1.845,0.167c-0.605-0.25-1.05-0.78-1.191-1.419
	c-0.062-0.245-0.46-1.587-1.773-1.587c-0.513,0-1.043-0.01-1.594-0.021c-0.564-0.011-1.15-0.023-1.759-0.023
	c-2.033,0-4.505,0.122-7.42,1.028c-3.691,1.147-8.495,3.315-10.106,4.059l-2.219,3.797c2.687-2.154,5.043-4.059,5.044-4.06
	c0.499-0.403,1.162-0.542,1.779-0.375c0.002,0,10.037,2.714,21.271,5.681c1.81,0.478,3.495,0.931,5.052,1.349
	c5.647,1.517,9.793,2.632,11.694,2.724c0.609-3.044,1.006-14.371,0.077-23.664c-0.949-9.491-8.744-33.67-10.556-38.526
	c-1.578-4.229-3.283-8.775-3.283-8.775c-0.367-0.979,0.082-2.076,1.031-2.516c0.947-0.439,2.077-0.076,2.587,0.837
	c0.114,0.203,11.418,20.507,16.975,39.83c5.559,19.33,6.238,33.59,6.265,34.188c0.029,0.653-0.264,1.279-0.784,1.676l-10.988,8.398
	c-0.558,0.428-1.301,0.529-1.953,0.27c-0.123-0.048-12.339-4.896-20.504-7.432c-6.748-2.096-11.326-3.072-14.409-3.072
	c-0.983,0-1.82,0.101-2.487,0.299c-1.47,0.439-3.699,1.627-5.719,2.819c2.368,0.473,5.116,0.954,6.976,1.068
	c4.089,0.251,8.179,0.44,8.179,0.44c0.555,0.026,1.074,0.281,1.433,0.704c0.14,0.165,14.117,16.599,22.388,23.155
	c7.352,5.827,12.53,9.384,16.296,11.195c0.611,0.294,1.107,0.54,1.52,0.744c1.474,0.73,1.512,0.73,1.879,0.73
	c0.146,0,0.309-0.007,0.5-0.019c0.49-0.033,1.934-0.964,2.915-1.88c0.558-0.521,1.362-0.678,2.076-0.407
	c0.713,0.271,1.209,0.924,1.28,1.684c0.064,0.691,1.57,17.063,1.192,28.613c-0.395,12.036-9.174,37.502-11.309,41.97
	c-1.979,4.143-8.111,18.592-8.173,18.738c-0.417,0.981-1.53,1.464-2.531,1.096c-1.001-0.368-1.538-1.456-1.22-2.474
	c0.104-0.332,10.376-33.274,11.479-43.012c1.161-10.258,0.363-16.489-0.554-21.991c-1.007-6.04-2.115-9.865-2.125-9.903
	c-0.238-0.816,0.065-1.694,0.757-2.188c0.043-0.036,0.128-0.139,0.164-0.206c-0.018-0.013-0.058-0.083-0.146-0.187
	c-0.759-0.868-6.663-5.269-11.407-8.804c-4.957-3.695-10.083-7.515-12.075-9.276c-1.657-1.464-4.556-4.412-7.625-7.533
	c-4.354-4.428-9.773-9.939-11.52-11.018c-1.303-0.805-5.182-1.604-9.091-2.208c3.083,2.74,6.821,6.038,8.576,7.492
	c2.662,2.206,5.085,2.285,5.188,2.287c1.003,0.023,1.857,0.786,1.966,1.783c0.03,0.279,3.042,28.081,2.758,45.622
	c-0.271,16.797-1.575,26.99-5.366,41.948c-3.518,13.884-14.012,34.765-14.457,35.647
	C131.709,223.008,131.007,223.415,130.272,223.415z M78.107,101.078c-0.623,6.072-2.814,28.651-2.574,43.577
	c0.296,18.363,1.999,28.225,5.244,41.03c0.511,2.017,1.185,4.206,1.96,6.472c-0.489-2.041-0.908-3.944-1.222-5.61
	c-2.247-11.919-4.085-24.79-1.922-51.023l2.139-25.948c-0.643-1.776-0.889-4.867,1.514-7.455c0.724-0.779,1.64-1.921,2.61-3.13
	c2.356-2.937,5.026-6.265,7.682-8.06c3.502-2.367,6.153-4.165,6.154-4.166c0.601-0.408,1.373-0.457,2.02-0.133
	c0.647,0.325,1.069,0.975,1.101,1.699c0.022,0.494,0.164,4.916-1.573,8.065c-1.072,1.944-2.282,3.382-3.026,4.177
	c0.17,3.114,0.948,14.129,3.755,23.254c2.168,7.047,5.021,15.098,6.779,19.942c0.239-0.05,0.491-0.055,0.748-0.011l2.212,0.339
	l0.66-0.067l1.553-0.272c0.255-0.044,0.508-0.039,0.748,0.011c1.758-4.844,4.611-12.895,6.779-19.942
	c2.808-9.125,3.585-20.14,3.755-23.254c-0.745-0.795-1.954-2.233-3.026-4.177c-1.737-3.149-1.595-7.571-1.573-8.065
	c0.032-0.724,0.454-1.374,1.101-1.699c0.647-0.324,1.42-0.274,2.02,0.133c0,0,2.651,1.799,6.154,4.166
	c2.656,1.795,5.326,5.123,7.682,8.06c0.97,1.209,1.886,2.351,2.609,3.13c2.404,2.588,2.157,5.679,1.515,7.455l2.139,25.948
	c2.163,26.233,0.325,39.104-1.922,51.023c-0.314,1.665-0.733,3.568-1.222,5.609c0.776-2.266,1.449-4.455,1.96-6.471
	c3.245-12.806,4.947-22.668,5.244-41.03c0.241-14.926-1.951-37.504-2.574-43.577c-1.472-0.328-3.646-1.11-5.891-2.971
	c-3.308-2.741-13.095-11.52-13.51-11.892c-0.645-0.578-0.844-1.505-0.494-2.297c0.35-0.792,1.172-1.27,2.031-1.181
	c2.259,0.229,13.704,1.48,17.142,3.604c2.008,1.24,6.162,5.405,12.27,11.617c3.019,3.07,5.87,5.969,7.421,7.34
	c1.868,1.65,6.926,5.42,11.817,9.065c7.525,5.609,11.169,8.367,12.065,9.421c1.067,1.256,1.175,2.465,1.077,3.259
	c-0.097,0.779-0.413,1.416-0.758,1.9c0.416,1.598,1.194,4.84,1.93,9.259c1.176,7.053,1.684,13.378,0.583,23.098
	c-0.167,1.478-0.525,3.43-1.016,5.688c2.421-8.189,4.619-17.176,4.796-22.587c0.268-8.157-0.456-19.099-0.885-24.618
	c-0.757,0.394-1.572,0.689-2.355,0.733c-0.277,0.016-0.513,0.025-0.725,0.025c-1.341,0-2.066-0.359-3.654-1.146
	c-0.402-0.199-0.884-0.438-1.479-0.724c-4.04-1.942-9.457-5.649-17.047-11.665c-7.711-6.111-19.627-19.822-22.388-23.039
	c-1.424-0.069-4.398-0.219-7.373-0.402c-4.229-0.26-12.07-2.119-12.402-2.197c-0.771-0.184-1.361-0.806-1.504-1.586
	c-0.143-0.78,0.189-1.571,0.845-2.016c0.286-0.194,7.056-4.766,10.907-5.914c3.738-1.116,9.146-0.345,19.226,2.785
	c6.891,2.141,16.561,5.876,19.739,7.12l9.243-7.064c-0.263-3.6-1.46-16.278-6.047-32.229c-0.416-1.446-0.865-2.898-1.34-4.347
	c1.186,4.652,2.105,8.946,2.41,11.995c0.57,5.701,1.309,24.705-1.145,27.158c-0.91,0.91-2.236,0.91-2.672,0.91
	c-2.303,0-6.319-1.079-12.973-2.867c-1.552-0.417-3.23-0.868-5.035-1.345c-9.156-2.417-17.516-4.667-20.308-5.42
	c-1.129,0.911-3.305,2.664-5.496,4.417c-3.577,2.862-6.237,3.019-6.529,3.027c-0.725,0.032-1.407-0.354-1.778-0.979
	c-0.371-0.625-0.373-1.402-0.006-2.029l6.125-10.483c0.203-0.347,0.505-0.625,0.869-0.797c0.261-0.124,6.435-3.046,11.189-4.523
	c3.447-1.071,6.411-1.208,8.607-1.208c0.637,0,1.249,0.012,1.839,0.024c0.522,0.01,1.027,0.021,1.514,0.021
	c2.15,0,3.606,1.062,4.517,2.27l5.79-3.728c0.521-2.477,1.907-11.656-2.469-25.054c0.334,3.057,0.503,6.442,0.604,10.272
	c0.262,9.953-2.335,13.069-2.858,13.593c-0.369,0.369-0.867,0.58-1.389,0.586c-0.049,0-4.972,0.074-11.708,0.931
	c-5.512,0.702-14.168,4.632-16.801,5.874c-0.401,1.168-1.301,3.251-3.25,6.042c-2.013,2.882-3.6,4.659-4.588,5.139
	c-0.6,0.292-1.308,0.264-1.884-0.075c-0.124-0.072-0.238-0.157-0.342-0.252c-0.611,0.694-1.513,1.096-2.499,1.096
	c-0.787,0-1.47-0.27-2.025-0.619c-0.791,0.865-1.838,1.34-2.958,1.34c-0.21,0-0.403-0.017-0.573-0.042
	c-0.17,0.025-0.363,0.042-0.573,0.042c-1.121,0-2.168-0.476-2.958-1.34c-0.555,0.349-1.239,0.619-2.026,0.619
	c-0.986,0-1.887-0.402-2.499-1.096c-0.104,0.095-0.217,0.18-0.341,0.252c-0.577,0.338-1.284,0.366-1.885,0.075
	c-0.989-0.479-2.576-2.256-4.589-5.139c-1.95-2.791-2.849-4.873-3.25-6.042c-2.634-1.242-11.29-5.172-16.801-5.874
	c-6.737-0.857-11.66-0.931-11.708-0.931c-0.521-0.007-1.02-0.217-1.389-0.586c-0.523-0.523-3.121-3.64-2.858-13.593
	c0.101-3.83,0.27-7.215,0.604-10.271c-4.374,13.39-2.992,22.567-2.469,25.054l5.789,3.727c0.91-1.208,2.367-2.27,4.517-2.27
	c0.487,0,0.992-0.01,1.514-0.021c0.59-0.012,1.202-0.024,1.839-0.024c2.197,0,5.161,0.137,8.607,1.208
	c4.754,1.478,10.929,4.4,11.189,4.524c0.364,0.172,0.667,0.45,0.869,0.797l6.126,10.483c0.366,0.627,0.364,1.404-0.007,2.029
	c-0.371,0.625-1.057,1.008-1.778,0.979c-0.292-0.008-2.952-0.165-6.529-3.027c-2.191-1.753-4.367-3.506-5.496-4.417
	c-2.793,0.753-11.152,3.003-20.308,5.42c-1.804,0.477-3.483,0.928-5.035,1.345c-6.654,1.788-10.67,2.867-12.973,2.867
	c-0.436,0-1.763,0-2.672-0.91c-2.453-2.453-1.714-21.457-1.145-27.158c0.305-3.048,1.224-7.342,2.41-11.993
	c-0.475,1.448-0.923,2.9-1.339,4.345c-4.595,15.979-5.786,28.633-6.047,32.229l9.243,7.064c3.178-1.244,12.848-4.979,19.739-7.12
	c10.082-3.13,15.49-3.899,19.225-2.785c3.851,1.148,10.622,5.72,10.908,5.914c0.656,0.445,0.988,1.236,0.845,2.016
	c-0.143,0.78-0.733,1.402-1.504,1.586c-0.332,0.079-8.174,1.937-12.402,2.197c-2.975,0.183-5.95,0.333-7.374,0.402
	c-2.761,3.217-14.677,16.928-22.388,23.039c-7.59,6.016-13.007,9.723-17.047,11.666c-0.595,0.286-1.077,0.524-1.479,0.724
	c-1.587,0.786-2.312,1.145-3.653,1.145c-0.212,0-0.448-0.009-0.725-0.025c-0.784-0.044-1.598-0.339-2.355-0.733
	c-0.429,5.52-1.153,16.464-0.885,24.618c0.177,5.411,2.376,14.398,4.797,22.589c-0.49-2.26-0.848-4.211-1.016-5.69
	c-1.101-9.721-0.593-16.045,0.583-23.098c0.736-4.419,1.515-7.661,1.93-9.259c-0.345-0.484-0.662-1.121-0.758-1.9
	c-0.098-0.794,0.009-2.003,1.077-3.259c0.896-1.054,4.54-3.812,12.064-9.42c4.892-3.646,9.949-7.416,11.817-9.066
	c1.551-1.371,4.4-4.269,7.418-7.337c6.109-6.214,10.265-10.379,12.273-11.62c3.438-2.124,14.882-3.375,17.142-3.604
	c0.86-0.089,1.681,0.389,2.031,1.181c0.35,0.792,0.151,1.719-0.494,2.297c-0.415,0.372-10.202,9.151-13.51,11.892
	C81.752,99.968,79.578,100.75,78.107,101.078z" />
	 <g transform="translate(300, 55.695), scale(0.7)" fill="#333">
        <path d="M 613.888 10.24 L 613.888 137.216 A 60.705 60.705 0 0 0 613.954 140.055 Q 614.553 152.847 620.602 163.316 A 50.135 50.135 0 0 0 621.696 165.12 A 51.598 51.598 0 0 0 624.562 169.185 Q 631.357 177.897 641.762 183.449 A 63.11 63.11 0 0 0 643.456 184.32 A 61.649 61.649 0 0 0 648.369 186.492 Q 659.467 190.833 672.846 191.198 A 90.809 90.809 0 0 0 675.328 191.232 A 90.563 90.563 0 0 0 678.104 191.19 Q 692.78 190.74 704.7 185.489 A 61.259 61.259 0 0 0 707.2 184.32 Q 721.152 177.408 729.088 165.12 A 49.502 49.502 0 0 0 731.322 161.299 Q 736.63 151.203 736.997 139.036 A 60.335 60.335 0 0 0 737.024 137.216 L 737.024 10.24 A 10.857 10.857 0 0 1 737.062 9.315 Q 737.313 6.384 739.2 4.608 A 7.256 7.256 0 0 1 741.925 2.981 Q 743.196 2.56 744.704 2.56 Q 746.956 2.56 748.602 3.369 A 6.472 6.472 0 0 1 750.336 4.608 Q 752.167 6.439 752.361 9.499 A 11.729 11.729 0 0 1 752.384 10.24 L 752.384 137.216 Q 752.384 156.807 743.135 172.194 A 64.077 64.077 0 0 1 742.528 173.184 Q 732.672 188.928 715.136 197.76 Q 698.912 205.931 678.635 206.543 A 109.71 109.71 0 0 1 675.328 206.592 Q 653.056 206.592 635.52 197.76 A 77.835 77.835 0 0 1 632.828 196.338 Q 618.963 188.661 610.337 176.346 A 65.778 65.778 0 0 1 608.256 173.184 Q 598.528 157.44 598.528 137.216 L 598.528 10.24 A 10.857 10.857 0 0 1 598.566 9.315 Q 598.817 6.384 600.704 4.608 A 7.256 7.256 0 0 1 603.429 2.981 Q 604.7 2.56 606.208 2.56 Q 608.46 2.56 610.106 3.369 A 6.472 6.472 0 0 1 611.84 4.608 Q 613.671 6.439 613.865 9.499 A 11.729 11.729 0 0 1 613.888 10.24 Z M 895.488 8.96 A 69.507 69.507 0 0 0 894.88 8.615 Q 879.509 0 861.184 0 A 100.005 100.005 0 0 0 858.79 0.028 Q 842.342 0.422 829.568 6.272 A 61.75 61.75 0 0 0 828.078 6.979 Q 815.456 13.172 808.32 23.936 Q 800.768 35.328 800.768 50.176 Q 800.768 69.697 815.175 83.659 A 59.222 59.222 0 0 0 817.024 85.376 A 60.63 60.63 0 0 0 819.68 87.606 Q 834.727 99.526 859.059 103.529 A 133.91 133.91 0 0 0 861.696 103.936 Q 884.116 107.004 896.419 116.925 A 41.61 41.61 0 0 1 898.432 118.656 A 43.592 43.592 0 0 1 899.28 119.455 Q 910.848 130.653 910.848 147.456 Q 910.848 167.68 898.176 178.688 A 39.281 39.281 0 0 1 893.72 182.034 Q 882.522 189.266 865.531 189.672 A 85.481 85.481 0 0 1 863.488 189.696 A 102.18 102.18 0 0 1 861.3 189.673 Q 845.567 189.336 833.654 184.112 A 55.097 55.097 0 0 1 830.592 182.656 A 56.619 56.619 0 0 1 829.066 181.842 Q 818.274 175.871 811.94 166.114 A 47.528 47.528 0 0 1 809.984 162.816 A 12.115 12.115 0 0 0 809.808 162.46 Q 807.734 158.428 803.571 158.002 A 9.942 9.942 0 0 0 802.56 157.952 A 12.194 12.194 0 0 0 802.217 157.957 Q 798.871 158.051 796.8 160 A 7.449 7.449 0 0 0 796.119 160.731 Q 794.934 162.191 794.688 164.094 A 8.003 8.003 0 0 0 794.624 165.12 A 6.218 6.218 0 0 0 794.708 166.137 Q 794.803 166.708 795.004 167.28 A 7.895 7.895 0 0 0 795.392 168.192 A 65.044 65.044 0 0 0 796.099 169.546 Q 804.091 184.419 819.055 193.615 A 74.4 74.4 0 0 0 821.76 195.2 Q 839.424 205.056 863.488 205.056 Q 879.548 205.056 892.299 199.951 A 62.036 62.036 0 0 0 896.384 198.144 Q 910.592 191.232 918.4 178.176 A 51.186 51.186 0 0 0 920.533 174.225 Q 926.208 162.515 926.208 147.456 A 72.811 72.811 0 0 0 926.178 145.354 Q 925.592 125.061 913.589 111.755 A 49.8 49.8 0 0 0 911.36 109.44 Q 896.512 94.976 864.256 89.6 A 157.882 157.882 0 0 1 862.446 89.288 Q 839.242 85.142 827.904 75.776 A 41.218 41.218 0 0 1 826.977 74.987 Q 816.128 65.472 816.128 51.712 A 49.293 49.293 0 0 1 816.128 51.578 Q 816.175 34.522 828.032 24.96 A 35.234 35.234 0 0 1 828.891 24.289 Q 840.118 15.794 859.213 15.381 A 91.194 91.194 0 0 1 861.184 15.36 A 73.044 73.044 0 0 1 862.037 15.365 Q 888.747 15.677 903.514 35.593 A 59.37 59.37 0 0 1 904.96 37.632 Q 907.22 41.022 911.076 41.419 A 10.261 10.261 0 0 0 912.128 41.472 A 14.543 14.543 0 0 0 912.743 41.459 Q 914.336 41.392 915.2 40.96 A 10.655 10.655 0 0 0 915.336 40.891 Q 916.348 40.366 917.135 39.681 A 7.607 7.607 0 0 0 918.4 38.272 Q 919.197 37.122 919.442 35.787 A 6.761 6.761 0 0 0 919.552 34.56 Q 919.552 32.256 918.528 30.464 Q 911.104 17.92 895.488 8.96 Z M 160.311 0.068 A 110.648 110.648 0 0 0 156.416 0 Q 131.565 0 110.402 11.483 A 99.343 99.343 0 0 0 106.112 13.952 A 109.009 109.009 0 0 0 104.543 14.926 Q 84.677 27.489 72.14 47.479 A 111.393 111.393 0 0 0 69.76 51.456 Q 56.32 75.008 56.32 102.4 Q 56.32 127.331 67.56 149.187 A 107.592 107.592 0 0 0 69.888 153.472 Q 83.456 177.152 106.496 191.104 A 103.444 103.444 0 0 0 108.082 192.045 Q 130.459 205.056 156.416 205.056 Q 197.376 205.056 219.392 183.04 Q 220.918 181.296 221.145 178.624 A 11.364 11.364 0 0 0 221.184 177.664 Q 221.184 174.906 219.514 172.852 A 8.614 8.614 0 0 0 218.752 172.032 A 10.501 10.501 0 0 0 218.638 171.925 Q 216.248 169.728 213.248 169.728 A 6.244 6.244 0 0 0 211.549 169.961 Q 210.906 170.141 210.291 170.463 A 7.508 7.508 0 0 0 209.408 171.008 Q 186.624 189.696 156.416 189.696 Q 135.765 189.696 117.743 180.022 A 87.237 87.237 0 0 1 114.048 177.92 Q 94.464 166.144 83.072 146.048 Q 72.704 127.758 71.772 106.604 A 95.549 95.549 0 0 1 71.68 102.4 Q 71.68 79.616 83.2 59.52 A 97.348 97.348 0 0 1 83.35 59.26 Q 94.847 39.346 114.304 27.392 A 88.056 88.056 0 0 1 117.155 25.713 Q 133.663 16.406 152.218 15.466 A 82.911 82.911 0 0 1 156.416 15.36 A 117.212 117.212 0 0 1 156.817 15.361 Q 180.184 15.441 196.829 24.848 A 63.01 63.01 0 0 1 207.872 32.768 A 23.034 23.034 0 0 0 208.339 33.158 Q 211.641 35.84 214.272 35.84 A 9.974 9.974 0 0 0 214.911 35.82 Q 217.343 35.664 219.009 34.296 A 6.873 6.873 0 0 0 219.904 33.408 A 9.994 9.994 0 0 0 220.133 33.126 Q 221.952 30.799 221.952 27.904 A 8.988 8.988 0 0 0 221.929 27.259 Q 221.724 24.398 219.648 22.784 A 110.881 110.881 0 0 0 219.543 22.697 Q 193.686 1.244 160.311 0.068 Z M 551.168 198.4 L 504.064 123.136 L 499.456 123.136 L 458.24 123.136 L 458.24 194.816 Q 458.24 198.144 456.192 200.32 Q 454.232 202.403 450.865 202.492 A 11.487 11.487 0 0 1 450.56 202.496 Q 447.452 202.496 445.349 200.598 A 7.871 7.871 0 0 1 445.056 200.32 A 7.525 7.525 0 0 1 444.182 199.275 Q 442.889 197.403 442.88 194.85 A 10.179 10.179 0 0 1 442.88 194.816 L 442.88 10.24 A 10.857 10.857 0 0 1 442.918 9.315 Q 443.169 6.384 445.056 4.608 A 7.256 7.256 0 0 1 447.781 2.981 Q 449.052 2.56 450.56 2.56 L 499.456 2.56 Q 517.888 2.56 532.48 10.24 Q 545.954 17.332 553.971 29.662 A 58.968 58.968 0 0 1 555.264 31.744 A 56.737 56.737 0 0 1 560.414 43.13 Q 563.456 52.468 563.456 63.232 Q 563.456 82.2 553.946 96.465 A 56.692 56.692 0 0 1 551.808 99.456 A 58.849 58.849 0 0 1 549.212 102.618 Q 538.621 114.637 522.253 119.779 A 72.195 72.195 0 0 1 520.448 120.32 L 564.48 190.72 Q 566.528 194.304 566.528 196.608 A 6.599 6.599 0 0 1 566.478 197.436 Q 566.253 199.208 565.035 200.395 A 5.625 5.625 0 0 1 564.352 200.96 A 6.473 6.473 0 0 1 563.547 201.443 Q 561.472 202.496 558.08 202.496 Q 555.751 202.496 554.27 201.649 A 4.911 4.911 0 0 1 553.984 201.472 Q 552.654 200.585 551.515 198.93 A 14.447 14.447 0 0 1 551.168 198.4 Z M 399.104 197.632 L 380.16 152.32 L 275.968 152.32 L 257.024 197.632 Q 255.324 202.248 250.396 202.483 A 11.297 11.297 0 0 1 249.856 202.496 A 10.258 10.258 0 0 1 248.931 202.455 Q 246.143 202.203 244.4 200.383 A 6.997 6.997 0 0 1 244.224 200.192 A 8.678 8.678 0 0 1 243.477 199.224 Q 242.176 197.264 242.176 194.816 A 7.805 7.805 0 0 1 242.282 193.521 A 7.181 7.181 0 0 1 242.944 191.488 L 320.512 7.936 A 12.196 12.196 0 0 1 320.852 7.129 Q 322.805 2.936 327.14 2.591 A 10.038 10.038 0 0 1 327.936 2.56 A 9.004 9.004 0 0 1 328.947 2.615 Q 333.29 3.106 335.36 7.936 L 413.184 191.488 Q 413.952 193.024 413.952 194.816 A 7.64 7.64 0 0 1 413.846 196.101 Q 413.457 198.383 411.648 200.192 A 9.044 9.044 0 0 1 410.871 200.886 Q 409.083 202.303 406.879 202.473 A 7.908 7.908 0 0 1 406.272 202.496 A 9.93 9.93 0 0 1 405.339 202.453 Q 400.96 202.04 399.104 197.632 Z M 15.36 10.24 L 15.36 194.816 Q 15.36 197.924 13.462 200.027 A 7.871 7.871 0 0 1 13.184 200.32 A 7.525 7.525 0 0 1 12.139 201.194 Q 10.267 202.487 7.714 202.496 A 10.179 10.179 0 0 1 7.68 202.496 Q 4.572 202.496 2.469 200.598 A 7.871 7.871 0 0 1 2.176 200.32 A 7.525 7.525 0 0 1 1.302 199.275 Q 0.009 197.403 0 194.85 A 10.179 10.179 0 0 1 0 194.816 L 0 10.24 Q 0 7.132 1.898 5.029 A 7.871 7.871 0 0 1 2.176 4.736 A 7.525 7.525 0 0 1 3.221 3.862 Q 5.093 2.569 7.646 2.56 A 10.179 10.179 0 0 1 7.68 2.56 Q 10.788 2.56 12.891 4.458 A 7.871 7.871 0 0 1 13.184 4.736 A 7.525 7.525 0 0 1 14.058 5.781 Q 15.351 7.653 15.36 10.206 A 10.179 10.179 0 0 1 15.36 10.24 Z M 281.856 138.496 L 374.272 138.496 L 327.936 27.904 L 281.856 138.496 Z M 458.24 107.776 L 499.456 107.776 Q 510.418 107.776 519.519 104.362 A 48.175 48.175 0 0 0 524.544 102.144 A 47.471 47.471 0 0 0 527.059 100.761 Q 534.75 96.219 539.878 89.183 A 43.678 43.678 0 0 0 541.824 86.272 Q 547.436 77.109 548.027 65.896 A 50.673 50.673 0 0 0 548.096 63.232 Q 548.096 50.176 541.824 39.808 Q 535.552 29.44 524.544 23.68 Q 513.536 17.92 499.456 17.92 L 458.24 17.92 L 458.24 107.776 Z" vector-effect="non-scaling-stroke"/>
    </g>
</svg>
